<?xml version="1.0" encoding="utf-8"?>
<!-- Generator: Adobe Illustrator 16.0.0, SVG Export Plug-In . SVG Version: 6.00 Build 0)  -->
<!DOCTYPE svg PUBLIC "-//W3C//DTD SVG 1.1//EN" "http://www.w3.org/Graphics/SVG/1.1/DTD/svg11.dtd">
<svg version="1.1" id="Layer_1" xmlns="http://www.w3.org/2000/svg" xmlns:xlink="http://www.w3.org/1999/xlink" x="0px" y="0px"
	 width="679.261px" height="200px" viewBox="0 0 679.261 200" enable-background="new 0 0 679.261 200" xml:space="preserve">
<g>
	<g>
		<path d="M312.571,112.136c-8.041,20.33-29.434,28.221-43.24,28.221c-22.454,0-33.226-10.014-33.226-37.322
			c0-27.461,13.199-78.894,52.949-78.894c14.262,0,25.337,5.613,25.337,20.33c0,8.041-2.883,13.958-10.621,13.958
			c-2.427,0-5.765-0.607-8.648-3.944c3.641-1.821,6.979-8.193,6.979-13.958c0-4.855-2.427-9.255-9.255-9.255
			c-16.689,0-31.557,39.901-31.557,70.851c0,13.959,3.641,23.668,18.206,23.668c11.834,0,22.606-5.764,29.585-15.17L312.571,112.136
			z"/>
		<path d="M367.491,84.979c0.607,0.304,1.213,0.304,1.668,0.304c6.98,0,16.842-4.552,23.365-9.104l1.365,4.097
			c-5.766,6.22-15.777,10.771-26.854,12.593c-2.428,28.068-17.6,45.667-36.263,45.667c-14.108,0-24.273-6.676-24.273-23.973
			c0-17.447,10.316-53.86,41.571-53.86C361.118,60.704,367.491,69.049,367.491,84.979z M354.444,93.324
			c-3.188-0.759-4.098-3.338-4.098-6.373c0-4.248,1.973-6.979,4.703-8.192c-0.303-6.372-1.82-8.8-5.766-8.8
			c-10.772,0-20.178,27.765-20.178,42.632c0,10.014,1.972,12.289,7.737,12.289C344.278,124.88,352.017,111.226,354.444,93.324z"/>
		<path d="M444.866,62.07l-10.924,51.583c-0.455,1.973-0.607,3.49-0.607,4.855c0,4.248,1.973,5.613,6.221,5.613
			c5.916,0,10.014-5.766,12.289-13.352h6.373c-8.648,24.73-22.303,28.068-30.496,28.068c-8.648,0-14.109-5.006-15.02-14.414
			c-7.586,12.441-16.082,14.414-22.455,14.414c-9.104,0-16.234-5.463-16.234-18.207c0-2.883,0.455-6.219,1.215-9.861l10.316-48.701
			h21.848l-10.924,51.583c-0.303,1.518-0.455,2.883-0.455,4.248c0,3.49,1.213,6.221,4.551,6.221c5.918,0,9.861-5.766,12.139-13.352
			l10.316-48.701H444.866z"/>
		<path d="M490.075,75.27c-5.463,0-9.559,6.372-11.834,13.958l-10.318,48.702h-21.848l16.082-75.859h21.848l-1.668,7.889
			c6.371-7.282,13.047-8.496,17.75-8.496c9.711,0,16.842,5.007,16.842,17.145c0,12.289-7.283,30.646-7.283,39.142
			c0,3.793,1.518,6.373,6.068,6.373c6.676,0,9.408-5.461,12.744-13.352h6.373c-8.496,24.883-20.178,28.068-28.219,28.068
			c-13.201,0-17.904-8.496-17.904-17.145c0-10.316,6.828-28.978,6.828-38.688C495.536,78,493.716,75.27,490.075,75.27z"/>
		<path d="M565.778,38.099L560.62,62.07h9.104l-1.215,6.068h-9.104l-9.709,45.515c-0.455,1.973-0.607,3.49-0.607,4.855
			c0,4.248,1.973,5.613,6.221,5.613c5.918,0,11.379-5.766,13.654-13.352h6.373c-8.648,24.73-23.668,28.068-31.861,28.068
			c-9.104,0-16.234-5.463-16.234-18.207c0-2.883,0.455-6.219,1.215-9.861l9.104-42.632h-5.008l1.215-6.068h5.006l4.551-20.938
			L565.778,38.099z"/>
		<path d="M607.651,31.727l-17.447,81.927c-0.455,1.973-0.607,3.49-0.607,4.855c0,4.248,1.973,5.613,6.221,5.613
			c5.918,0,11.379-5.766,13.654-13.352h6.373c-8.648,24.73-23.668,28.068-31.861,28.068c-9.104,0-16.234-5.463-16.234-18.207
			c0-2.883,0.455-6.219,1.215-9.861l16.232-76.01L607.651,31.727z"/>
		<path d="M641.636,62.07l-10.924,51.583c-0.303,1.215-0.455,2.58-0.455,3.793c0,3.49,1.062,6.676,4.551,6.676
			c5.918,0,9.861-5.766,12.139-13.352l10.316-48.701h21.998l-18.51,87.996c-4.551,21.695-17.598,25.793-27.611,25.793
			c-9.256,0-17.902-6.523-17.902-16.387c0-14.109,11.834-18.51,26.246-22.758l1.518-6.674c-6.523,7.434-13.352,8.799-18.51,8.799
			c-9.104,0-16.234-5.463-16.234-18.207c0-2.883,0.455-6.219,1.215-9.861l10.316-48.701H641.636z M629.649,162.355
			c3.035,0,6.979-2.883,8.951-11.834l1.82-8.951c-9.557,3.186-16.84,7.586-16.84,15.779
			C623.581,159.472,626.312,162.355,629.649,162.355z"/>
	</g>
	<path d="M160,200c22.092,0,40-17.908,40-40V40c0-22.092-17.908-40-40-40H40C17.909,0,0,17.908,0,40v120c0,22.092,17.909,40,40,40
		 M82.596,11.176h34.81c1.923,0,3.481,1.559,3.481,3.481c0,1.923-1.559,3.481-3.481,3.481h-34.81c-1.923,0-3.481-1.559-3.481-3.481
		C79.114,12.735,80.673,11.176,82.596,11.176z M100,191.296c-5.622,0-10.18-4.559-10.18-10.18c0-5.623,4.558-10.182,10.18-10.182
		c5.623,0,10.181,4.559,10.181,10.182C110.181,186.738,105.623,191.296,100,191.296z M175,29.455c5.523,0,10,4.477,10,10v116
		c0,5.523-4.477,10-10,10H25c-5.522,0-10-4.477-10-10v-116c0-5.523,4.478-10,10-10"/>
	<g>
		<path d="M65.996,65.389H49.963c-1.622,1.981-3.123,3.589-4.504,4.819c-1.382,1.231-2.688,2.251-3.918,3.062
			c-1.231,0.811-2.447,1.517-3.648,2.117c-1.202,0.601-2.432,1.202-3.693,1.801l4.143,9.998l9.007-4.233v33.418h-9.007v11.979
			h36.029v-11.979h-8.377V65.389z"/>
		<polygon points="102.326,94.56 102.326,32.727 97.675,32.727 97.675,162.222 102.326,162.222 102.326,99.211 180.044,99.211 
			180.044,94.56 		"/>
		<path d="M168.011,54.062h-15.132v7.206h-15.853c0.54-0.901,1.335-1.906,2.387-3.018c1.05-1.11,2.221-2.221,3.513-3.333
			c1.291-1.11,2.612-2.162,3.963-3.153s2.567-1.846,3.648-2.567c2.401-1.561,4.503-3.002,6.305-4.324
			c1.801-1.32,3.301-2.716,4.503-4.188c1.201-1.471,4.101-5.137,4.702-6.999l-19.159,0.063c-1.051,1.231-2.373,2.432-3.963,3.603
			c-1.592,1.171-3.318,2.357-5.179,3.558c-1.862,1.202-3.603,2.522-5.224,3.963c-1.441,1.142-2.702,2.207-3.783,3.198
			c-1.081,0.991-2.117,2.042-3.107,3.152c-0.991,1.112-1.967,2.373-2.927,3.783c-0.961,1.412-2.072,3.139-3.333,5.179v13.061h48.639
			V54.062z"/>
		<path d="M163.552,153.576c-0.871-1.201-1.788-2.221-2.748-3.062c-0.961-0.84-1.801-1.531-2.522-2.072
			c0.6-0.42,1.275-0.975,2.027-1.666c0.75-0.689,1.471-1.5,2.162-2.432c0.689-0.93,1.275-1.996,1.756-3.197
			c0.48-1.201,0.721-2.582,0.721-4.145c0-2.881-0.511-5.494-1.531-7.836c-1.022-2.342-2.508-4.354-4.458-6.035
			c-1.952-1.68-4.354-2.973-7.206-3.873c-2.853-0.9-6.111-1.352-9.772-1.352c-2.042,0-4.04,0.287-5.99,0.857
			c-1.952,0.57-3.783,1.275-5.494,2.115c-1.711,0.842-3.243,1.758-4.594,2.748s-2.418,1.936-3.198,2.838l8.737,10.537
			c1.561-1.68,3.272-3.002,5.134-3.963c1.861-0.959,3.662-1.441,5.405-1.441c0.959,0,1.905,0.15,2.837,0.451
			c0.931,0.301,1.771,0.736,2.522,1.307c0.75,0.57,1.365,1.305,1.847,2.205c0.48,0.902,0.721,1.953,0.721,3.154
			c0,2.041-0.736,3.588-2.207,4.639c-1.472,1.051-3.288,1.576-5.449,1.576h-6.575v10.719h6.755c2.281,0,4.098,0.48,5.449,1.439
			c1.351,0.963,2.027,1.674,2.027,4.135l16.753-0.01c0-2.039-0.301-1.857-0.901-3.449
			C165.158,156.173,164.422,154.777,163.552,153.576z"/>
	</g>
</g>
</svg>
